<?xml version="1.0" encoding="utf-8"?>
<!-- Generator: Adobe Illustrator 15.0.0, SVG Export Plug-In  -->
<!DOCTYPE svg PUBLIC "-//W3C//DTD SVG 1.1 Basic//EN" "http://www.w3.org/Graphics/SVG/1.1/DTD/svg11-basic.dtd" [
	<!ENTITY ns_flows "http://ns.adobe.com/Flows/1.0/">
]>
<svg version="1.1" baseProfile="basic"
	 xmlns="http://www.w3.org/2000/svg" xmlns:xlink="http://www.w3.org/1999/xlink" xmlns:a="http://ns.adobe.com/AdobeSVGViewerExtensions/3.0/"
	 x="0px" y="0px" width="610px" height="56px" viewBox="0 0 610 56" overflow="visible" enable-background="new 0 0 610 56"
	 xml:space="preserve">
<defs>
</defs>
<path fill="#FFFFFF" stroke="#FFFFFF" stroke-miterlimit="10" d="M188.389,53.625h-7.849V7.967c2.765-0.464,7.7-0.847,11.392-0.847
	c12.014,0,18.557,5.309,18.557,14.94c0,6.696-3.769,11.546-9.082,13.55l13.778,18.016h-9.465l-12.171-16.246h-5.16V53.625z
	 M188.389,30.913h3.85c6.241,0,10.245-2.692,10.245-8.623c0-5.236-3.625-8.316-10.551-8.316c-0.927,0-2.697,0.077-3.543,0.153
	V30.913z"/>
<path fill="#FFFFFF" stroke="#FFFFFF" stroke-miterlimit="10" d="M223.192,38.302v0.157c0.463,6.084,5.701,9.394,11.009,9.394
	c4.702,0,8.087-1.076,11.478-3.31v6.7c-3.08,2.152-7.628,3.156-12.018,3.156c-10.623,0-17.863-6.781-17.863-17.557
	c0-10.856,7.087-18.097,16.48-18.097c9.929,0,14.63,6.394,14.63,15.711v3.845H223.192z M239.745,33.376
	c-0.148-5.314-2.769-8.236-7.7-8.236c-4.386,0-7.619,3.08-8.623,8.236H239.745z"/>
<path fill="#FFFFFF" stroke="#FFFFFF" stroke-miterlimit="10" d="M251.835,44.386c3.152,2.391,6.926,3.85,10.393,3.85
	c3.387,0,5.62-1.153,5.62-3.85c0-2.77-1.999-3.77-6.389-4.927c-7.083-1.616-10.086-4.462-10.086-10.393
	c0-6.935,5.237-10.321,12.162-10.321c3.85,0,6.93,0.846,9.78,2.617v7.011c-2.999-2.157-5.93-3.467-9.546-3.467
	c-3.314,0-5.083,1.616-5.083,3.854c0,2.229,1.463,3.381,5.395,4.462c7.776,1.693,11.163,4.62,11.163,10.779
	c0,7.16-5.466,10.397-12.86,10.397c-4.003,0-8.006-1.08-10.546-2.773V44.386z"/>
<path fill="#FFFFFF" stroke="#FFFFFF" stroke-miterlimit="10" d="M280.55,9.042c0-2.617,2.233-4.697,4.773-4.697
	c2.544,0,4.778,2.08,4.778,4.697c0,2.697-2.233,4.854-4.778,4.854C282.783,13.897,280.55,11.74,280.55,9.042 M289.173,53.625h-7.628
	V19.516h7.628V53.625z"/>
<path fill="#FFFFFF" stroke="#FFFFFF" stroke-miterlimit="10" d="M327.752,52.936c-3.926,1-8.623,1.46-12.855,1.46
	c-11.863,0-19.716-6.313-19.716-17.787c0-11.009,7.776-17.863,18.248-17.863c2.468,0,5.161,0.464,6.781,1.311V1.266h7.543V52.936z
	 M320.209,26.752c-1.544-0.846-3.696-1.306-6.316-1.306c-6.39,0-11.017,4.003-11.017,11.01c0,7.313,4.781,11.397,12.174,11.397
	c1.535,0,3.462-0.076,5.159-0.306V26.752z"/>
<path fill="#FFFFFF" stroke="#FFFFFF" stroke-miterlimit="10" d="M341.144,38.302v0.157c0.469,6.084,5.7,9.394,11.019,9.394
	c4.696,0,8.083-1.076,11.47-3.31v6.7c-3.08,2.152-7.624,3.156-12.01,3.156c-10.632,0-17.868-6.781-17.868-17.557
	c0-10.856,7.084-18.097,16.481-18.097c9.934,0,14.63,6.394,14.63,15.711v3.845H341.144z M357.705,33.376
	c-0.152-5.314-2.773-8.236-7.704-8.236c-4.386,0-7.619,3.08-8.623,8.236H357.705z"/>
<path fill="#FFFFFF" stroke="#FFFFFF" stroke-miterlimit="10" d="M371.098,21.673c4.777-1.846,10.631-2.927,15.634-2.927
	c8.699,0,14.243,3.314,14.243,12.937v21.942h-7.543V32.376c0-4.931-3.08-6.7-7.317-6.7c-2.696,0-5.394,0.383-7.394,1.004v26.945
	h-7.623V21.673z"/>
<path fill="#FFFFFF" stroke="#FFFFFF" stroke-miterlimit="10" d="M404.518,19.516h5.156v-8.312h7.547v8.312h9.703v6.395h-9.703
	v16.246c0,4.08,1.77,5.462,4.696,5.462c2.233,0,4.156-0.689,6.236-1.923v6.854c-2.229,1.157-5.007,1.847-8.235,1.847
	c-5.548,0-10.244-2.77-10.244-10.546V25.911h-5.156V19.516z"/>
<path fill="#FFFFFF" stroke="#FFFFFF" stroke-miterlimit="10" d="M432.616,9.042c0-2.617,2.233-4.697,4.777-4.697
	c2.54,0,4.773,2.08,4.773,4.697c0,2.697-2.233,4.854-4.773,4.854C434.85,13.897,432.616,11.74,432.616,9.042 M441.239,53.625h-7.623
	V19.516h7.623V53.625z"/>
<path fill="#FFFFFF" stroke="#FFFFFF" stroke-miterlimit="10" d="M466.955,30.76c0-3.696-2.769-5.389-6.543-5.389
	c-3.927,0-7.007,1.152-9.852,2.769V21.52c2.998-1.697,6.85-2.774,11.086-2.774c7.471,0,12.779,3.08,12.779,11.626v22.563
	c-3.233,0.848-7.854,1.388-11.703,1.388c-8.857,0-15.323-2.697-15.323-10.397c0-6.93,5.931-10.32,15.782-10.32h3.773V30.76z
	 M466.955,38.69h-3.229c-5.318,0-8.78,1.54-8.78,5.007c0,3.544,3.233,4.927,7.853,4.927c1.157,0,2.77-0.154,4.156-0.388V38.69z"/>
<rect x="482.428" y="1.266" fill="#FFFFFF" stroke="#FFFFFF" stroke-miterlimit="10" width="7.628" height="52.359"/>
<polygon fill="#FFFFFF" stroke="#FFFFFF" stroke-miterlimit="10" points="511.764,7.889 519.621,7.889 519.621,46.696 
	538.254,46.696 538.254,53.625 511.764,53.625 "/>
<path fill="#FFFFFF" stroke="#FFFFFF" stroke-miterlimit="10" d="M542.258,9.042c0-2.617,2.229-4.697,4.768-4.697
	c2.541,0,4.778,2.08,4.778,4.697c0,2.697-2.237,4.854-4.778,4.854C544.486,13.897,542.258,11.74,542.258,9.042 M550.877,53.625
	h-7.625V19.516h7.625V53.625z"/>
<path fill="#FFFFFF" stroke="#FFFFFF" stroke-miterlimit="10" d="M568.122,53.625h-7.546V25.911h-5.309v-6.395h5.309v-6.39
	c0-8.475,4.625-12.626,11.783-12.626c2.693,0,4.773,0.537,6.7,1.688V9.2c-1.85-1.233-3.543-1.927-5.854-1.927
	c-3.233,0-5.084,1.616-5.084,5.777v6.466h8.704v6.395h-8.704V53.625z"/>
<path fill="#FFFFFF" stroke="#FFFFFF" stroke-miterlimit="10" d="M585.292,38.302v0.157c0.464,6.084,5.701,9.394,11.014,9.394
	c4.696,0,8.083-1.076,11.469-3.31v6.7c-3.074,2.152-7.617,3.156-12.009,3.156c-10.626,0-17.863-6.781-17.863-17.557
	c0-10.856,7.084-18.097,16.477-18.097c9.934,0,14.63,6.394,14.63,15.711v3.845H585.292z M601.85,33.376
	c-0.153-5.314-2.774-8.236-7.701-8.236c-4.39,0-7.623,3.08-8.623,8.236H601.85z"/>
<path fill="#FFFFFF" stroke="#FFFFFF" stroke-miterlimit="10" d="M0.645,40.509c-0.229-1.729-0.117-4.225-0.117-5.449L3.117,5.669
	h9.623l-2.635,29.652c-0.572,6.417,1.945,10.997,8.353,10.997c6.547,0,10.01-4.656,10.578-10.348l2.737-30.301h9.614l-2.652,29.918
	c-1.071,11.523-8.722,20.15-21.073,20.15C8.025,55.738,1.815,49.51,0.645,40.509"/>
<path fill="#FFFFFF" stroke="#FFFFFF" stroke-miterlimit="10" d="M43.251,30.553C44.512,16.441,54.026,4.742,70.476,4.742
	c4.327,0,8.479,0.986,12.635,3.657l-1.099,11.658c-3.796-4.989-8.299-5.8-12.459-5.8c-10.235,0-15.841,7.106-16.647,16.098
	c-0.775,8.762,3.747,15.891,13.658,15.891c4.327,0,8.916-1.257,13.725-6.052L79.22,52.163c-4.678,2.534-9.033,3.688-13.414,3.688
	C49.537,55.85,42.081,43.76,43.251,30.553"/>
<path fill="#FFFFFF" stroke="#FFFFFF" stroke-miterlimit="10" d="M89.424,5.669h9.601l-3.503,39.914h13.752
	c0.963,0,4.246-0.045,5.138-0.099c-0.054,0.481-0.882,9.221-0.882,9.221H85.075L89.424,5.669z"/>
<path fill="#FFFFFF" stroke="#FFFFFF" stroke-miterlimit="10" d="M139.429,23.979c0.311-0.698,0.598-1.558,0.707-2.062
	c0-0.004,0.157-0.004,0.157-0.004c0.05,0.622,0.162,1.351,0.36,2.071c0.527,2.242,4.274,14.647,4.274,14.647h-12.122
	C132.805,38.63,139.293,24.294,139.429,23.979 M141.887,3.422l-0.666,0.014L114.947,54.71h10.194l3.697-7.781h18.506l2.314,7.781
	h10.177L141.887,3.422"/>
</svg>
